<svg viewBox="0 0 16 16" xmlns="http://www.w3.org/2000/svg" version="1.1" fill="#000000">
  <!-- Gradient Definition -->
  <defs>
    <linearGradient id="gradient1" x1="0%" y1="0%" x2="0%" y2="100%">
      <stop offset="0%" style="stop-color:#cd3232;stop-opacity:1" />
      <stop offset="100%" style="stop-color:#8a2525;stop-opacity:1" />
    </linearGradient>
  </defs>
  
  <g transform="translate(0 -1036.362)">
    <!-- Use the gradient by setting fill to 'url(#gradient1)' -->
    <path id="path828" transform="translate(0 1036.362)" 
      d="M8 1a7 7 0 0 0-7 7 7 7 0 0 0 7 7 7 7 0 0 0 7-7 7 7 0 0 0-7-7zm0 1a6 6 0 0 1 6 6 6 6 0 0 1-6 6 6 6 0 0 1-6-6 6 6 0 0 1 6-6z"
      fill="url(#gradient1)" />
      
    <path id="rect891" d="m6 1041.362 5 3-5 3z" fill="url(#gradient1)" />
  </g>
</svg>
