<svg height="200px" width="200px" version="1.1" id="Layer_1" xmlns="http://www.w3.org/2000/svg" xmlns:xlink="http://www.w3.org/1999/xlink" viewBox="-112.64 -112.64 737.28 737.28" xml:space="preserve">
<symbol id="song" viewBox="-112.64 -112.64 737.28 737.28" fill="currentColor">
<g id="SVGRepo_bgCarrier" stroke-width="0"></g><g id="SVGRepo_tracerCarrier" stroke-linecap="round" stroke-linejoin="round"></g><g id="SVGRepo_iconCarrier"> <path d="M332.8,76.8c-28.232,0-51.2-22.968-51.2-51.2C281.6,11.462,270.138,0,256,0 c-14.138,0-25.6,11.462-25.6,25.6v311.294c-15.075-8.015-32.555-12.628-51.2-12.628c-56.463,0-102.4,42.109-102.4,93.867 S122.737,512,179.2,512s102.4-42.109,102.4-93.867v-303.91C296.675,122.967,314.155,128,332.8,128c28.232,0,51.2,22.968,51.2,51.2 c0,14.138,11.462,25.6,25.6,25.6s25.6-11.462,25.6-25.6C435.2,122.737,389.263,76.8,332.8,76.8z"></path> <path d="M230.4,336.894c-15.075-8.015-32.555-12.628-51.2-12.628c-56.463,0-102.4,42.109-102.4,93.867 S122.737,512,179.2,512s102.4-42.109,102.4-93.867V256h-51.2V336.894z"></path> </g>
</symbol>
</svg>